HIERARCHY
ROOT Hips
{
	OFFSET 0.000000 0.000000 0.000000
	CHANNELS 6 Xposition Yposition Zposition Xrotation Yrotation Zrotation
	JOINT LeftUpLeg_virtual
	{
		OFFSET 0.000000 0.000000 0.000000
		CHANNELS 3 Xrotation Yrotation Zrotation
		JOINT LeftUpLeg
		{
			OFFSET 10.205400 -3.823500 0.155100
			CHANNELS 3 Xrotation Yrotation Zrotation
			JOINT LeftLeg
			{
				OFFSET 0.708757 -12.982077 0.567790
				CHANNELS 3 Xrotation Yrotation Zrotation
				JOINT LeftFoot
				{
					OFFSET -0.708756 -10.717838 -2.184338
					CHANNELS 3 Xrotation Yrotation Zrotation
					JOINT LeftToeBase
					{
						OFFSET 0.108149 -7.191104 7.560241
						CHANNELS 3 Xrotation Yrotation Zrotation
						JOINT LeftToe_End
						{
							OFFSET 0.070230 0.081724 4.490308
							CHANNELS 3 Xrotation Yrotation Zrotation
							End Site
							{
								OFFSET 0 0 0
							}
						}
					}
				}
			}
		}
	}
	JOINT RightUpLeg_virtual
	{
		OFFSET 0.000000 0.000000 0.000000
		CHANNELS 3 Xrotation Yrotation Zrotation
		JOINT RightUpLeg
		{
			OFFSET -10.205400 -3.823500 0.005500
			CHANNELS 3 Xrotation Yrotation Zrotation
			JOINT RightLeg
			{
				OFFSET -0.708756 -12.982134 0.610632
				CHANNELS 3 Xrotation Yrotation Zrotation
				JOINT RightFoot
				{
					OFFSET 0.708754 -10.717769 -1.945823
					CHANNELS 3 Xrotation Yrotation Zrotation
					JOINT RightToeBase
					{
						OFFSET -0.108140 -7.191069 7.372968
						CHANNELS 3 Xrotation Yrotation Zrotation
						JOINT RightToe_End
						{
							OFFSET -0.070227 0.081735 4.479403
							CHANNELS 3 Xrotation Yrotation Zrotation
							End Site
							{
								OFFSET 0 0 0
							}
						}
					}
				}
			}
		}
	}
	JOINT Spine_virtual
	{
		OFFSET 0.000000 0.000000 0.000000
		CHANNELS 3 Xrotation Yrotation Zrotation
		JOINT Spine
		{
			OFFSET 0.000000 6.876099 0.125700
			CHANNELS 3 Xrotation Yrotation Zrotation
			JOINT Spine1
			{
				OFFSET 0.000000 5.730043 0.104720
				CHANNELS 3 Xrotation Yrotation Zrotation
				JOINT Spine1_split
				{
					OFFSET 0.000000 5.730043 0.104720
					CHANNELS 3 Xrotation Yrotation Zrotation
					JOINT Spine2
					{
						OFFSET 0.000000 5.730043 0.104720
						CHANNELS 3 Xrotation Yrotation Zrotation
						JOINT Neck_virtual
						{
							OFFSET 0.000000 0.000000 0.000000
							CHANNELS 3 Xrotation Yrotation Zrotation
							JOINT Neck
							{
								OFFSET 0.000000 10.314075 0.188496
								CHANNELS 3 Xrotation Yrotation Zrotation
								JOINT Head
								{
									OFFSET 0.000000 7.643700 -2.377400
									CHANNELS 3 Xrotation Yrotation Zrotation
									JOINT HeadTop_End
									{
										OFFSET 0.000000 43.788605 -13.619600
										CHANNELS 3 Xrotation Yrotation Zrotation
										End Site
										{
											OFFSET 0 0 0
										}
									}
								}
							}
						}
						JOINT LeftShoulder_virtual
						{
							OFFSET 0.000000 0.000000 0.000000
							CHANNELS 3 Xrotation Yrotation Zrotation
							JOINT LeftShoulder
							{
								OFFSET 2.196100 4.412489 0.087492
								CHANNELS 3 Xrotation Yrotation Zrotation
								JOINT LeftShoulder_split
								{
									OFFSET 2.196100 4.412489 0.087492
									CHANNELS 3 Xrotation Yrotation Zrotation
									JOINT LeftArm
									{
										OFFSET 8.771219 -2.981674 -0.026999
										CHANNELS 3 Xrotation Yrotation Zrotation
										JOINT LeftForeArm
										{
											OFFSET 8.512804 0.000000 -0.000000
											CHANNELS 3 Xrotation Yrotation Zrotation
											JOINT LeftHand
											{
												OFFSET 18.484802 0.000000 -0.000000
												CHANNELS 3 Xrotation Yrotation Zrotation
												End Site
												{
													OFFSET 0 0 0
												}
											}
										}
									}
								}
							}
						}
						JOINT RightShoulder_virtual
						{
							OFFSET 0.000000 0.000000 0.000000
							CHANNELS 3 Xrotation Yrotation Zrotation
							JOINT RightShoulder
							{
								OFFSET -2.196100 4.412496 0.070690
								CHANNELS 3 Xrotation Yrotation Zrotation
								JOINT RightShoulder_split
								{
									OFFSET -2.196100 4.412496 0.070690
									CHANNELS 3 Xrotation Yrotation Zrotation
									JOINT RightArm
									{
										OFFSET -8.771282 -2.981682 -0.094208
										CHANNELS 3 Xrotation Yrotation Zrotation
										JOINT RightForeArm
										{
											OFFSET -8.494598 0.000000 0.000000
											CHANNELS 3 Xrotation Yrotation Zrotation
											JOINT RightHand
											{
												OFFSET -18.483803 0.000000 0.000001
												CHANNELS 3 Xrotation Yrotation Zrotation
												End Site
												{
													OFFSET 0 0 0
												}
											}
										}
									}
								}
							}
						}
					}
				}
			}
		}
	}
}
MOTION
Frames: 9
Frame Time: 0.03333333
-0.301755 26.564713 0.292856 0.000000 0.000000 0.000000 11.655836 -49.360722 11.305343 -69.352628 16.208374 51.971927 53.929722 -25.144424 2.808993 2.213316 2.700260 -19.144091 -0.942026 -6.111182 0.983191 0.000000 0.000000 0.000000 11.655836 -49.360722 11.305343 -27.355230 4.523157 -38.848801 61.088597 11.597232 -5.601634 -37.638331 -11.607503 32.641570 0.528300 2.970167 1.471446 0.000000 0.000000 0.000000 11.655836 -49.360722 11.305343 10.972036 2.699021 -2.069989 6.100716 5.566531 -4.284693 0.000000 0.000000 0.000000 0.000000 0.000000 0.000000 -5.786931 6.328144 -3.046190 2.317272 9.363503 -0.265712 -4.145191 23.161793 -3.522658 0.000000 0.000000 0.000000 -5.786931 6.328144 -3.046190 -1.915080 -16.511779 -2.939000 0.000000 0.000000 0.000000 -10.486674 2.625039 -45.366352 -22.934674 -26.042302 -16.052449 0.000000 0.000000 0.000000 -5.786931 6.328144 -3.046190 -5.102355 24.651548 1.530453 0.000000 0.000000 0.000000 6.852333 -35.149963 57.689246 -21.079518 44.888922 20.017010 0.000000 0.000000 0.000000 
-0.151426 26.671406 0.176180 0.000000 0.000000 0.000000 11.537889 -49.194055 11.034457 -69.697012 16.362618 51.671409 53.113467 -25.320775 2.749034 3.158549 2.763779 -18.840737 -0.941985 -6.111182 0.983091 0.000000 0.000000 0.000000 11.537889 -49.194055 11.034457 -27.397395 4.428048 -38.294709 60.694290 11.295652 -5.799698 -37.319344 -11.919096 32.647468 0.691022 3.168778 1.304304 0.000000 0.000000 0.000000 11.537889 -49.194055 11.034457 10.773153 2.656401 -1.892976 6.253145 5.455812 -4.730125 0.000000 0.000000 0.000000 0.000000 0.000000 0.000000 -5.604866 6.319130 -3.448273 2.918538 9.797425 -0.772800 -4.285428 23.230976 -3.582200 0.000000 0.000000 0.000000 -5.604866 6.319130 -3.448273 -1.950327 -16.377045 -3.316420 0.000000 0.000000 0.000000 -12.793726 0.478101 -45.036188 -20.515380 -22.352286 -13.137808 0.000000 0.000000 0.000000 -5.604866 6.319130 -3.448273 -4.920671 23.574273 1.114851 0.000000 0.000000 0.000000 5.639830 -34.678076 56.669687 -22.473126 45.269613 21.754035 0.000000 0.000000 0.000000 
-0.007102 26.781002 -0.000025 0.000000 0.000000 0.000000 11.469516 -49.875185 11.105606 -69.112772 16.883871 51.748689 51.948018 -25.385310 2.624059 3.794830 3.268973 -19.080714 -0.942053 -6.111176 0.983189 0.000000 0.000000 0.000000 11.469516 -49.875185 11.105606 -28.592061 4.930313 -37.893408 61.037152 11.935116 -6.051406 -37.050447 -11.984036 32.102374 1.275840 3.411990 1.140891 0.000000 0.000000 0.000000 11.469516 -49.875185 11.105606 10.968596 2.419506 -2.113320 6.354290 5.276287 -5.097349 0.000000 0.000000 0.000000 0.000000 0.000000 0.000000 -5.456689 6.268699 -3.745260 3.317679 11.210756 -2.259809 -4.432844 23.483659 -3.578623 0.000000 0.000000 0.000000 -5.456689 6.268699 -3.745260 -1.995282 -14.975012 -4.449683 0.000000 0.000000 0.000000 -15.399647 -1.800109 -44.184815 -16.719357 -18.848433 -10.461585 0.000000 0.000000 0.000000 -5.456689 6.268699 -3.745260 -4.584619 21.996512 0.859037 0.000000 0.000000 0.000000 3.917481 -34.011064 54.545768 -24.794669 47.064323 25.390637 0.000000 0.000000 0.000000 
0.096552 26.886875 -0.228338 0.000000 0.000000 0.000000 12.452756 -53.118159 12.150626 -66.600560 17.364784 53.523985 50.972028 -24.283401 2.426023 2.858921 4.340032 -20.952346 -0.942069 -6.111170 0.983324 0.000000 0.000000 0.000000 12.452756 -53.118159 12.150626 -32.581894 7.502446 -36.775125 61.533304 14.366145 -6.351295 -34.326950 -11.294106 32.455594 1.609017 3.663224 0.938556 0.000000 0.000000 0.000000 12.452756 -53.118159 12.150626 10.976012 2.140594 -2.088048 6.622250 4.954802 -5.562623 0.000000 0.000000 0.000000 0.000000 0.000000 0.000000 -5.105701 6.139133 -4.118085 3.738907 13.663725 -4.400193 -5.183708 24.398307 -4.154499 0.000000 0.000000 0.000000 -5.105701 6.139133 -4.118085 -1.981550 -13.332545 -5.802901 0.000000 0.000000 0.000000 -15.999512 -1.606215 -43.044047 -13.164493 -18.160952 -9.218372 0.000000 0.000000 0.000000 -5.105701 6.139133 -4.118085 -4.212516 21.033450 1.004095 0.000000 0.000000 0.000000 0.695092 -32.792565 50.817632 -27.747818 50.323854 30.421577 0.000000 0.000000 0.000000 
0.202843 26.986191 -0.469173 0.000000 0.000000 0.000000 14.814486 -58.493788 14.500727 -62.375637 18.500459 56.301427 49.983956 -24.470910 2.085047 0.931579 8.389386 -23.947328 -0.941867 -6.111184 0.982934 0.000000 0.000000 0.000000 14.814486 -58.493788 14.500727 -38.687192 10.986382 -34.133706 61.548747 17.075208 -6.617257 -29.823420 -9.791052 32.490984 1.658309 4.286852 0.348714 0.000000 0.000000 0.000000 14.814486 -58.493788 14.500727 11.005798 1.784141 -2.044932 6.983136 4.491701 -6.024197 0.000000 0.000000 0.000000 0.000000 0.000000 0.000000 -4.638931 5.917010 -4.492119 3.198372 16.851381 -6.419499 -5.696946 25.780477 -5.084030 0.000000 0.000000 0.000000 -4.638931 5.917010 -4.492119 -1.767454 -10.956399 -6.848829 0.000000 0.000000 0.000000 -15.155339 0.099813 -42.101266 -10.572635 -19.057737 -8.624079 0.000000 0.000000 0.000000 -4.638931 5.917010 -4.492119 -3.613073 18.723791 1.244309 0.000000 0.000000 0.000000 -4.736844 -27.854358 45.593698 -29.494714 52.631201 34.309249 0.000000 0.000000 0.000000 
0.327720 27.058224 -0.710911 0.000000 0.000000 0.000000 19.413804 -65.159527 19.031444 -56.976752 21.003759 59.521082 48.437533 -23.910146 1.673084 -1.228319 12.715387 -27.664527 -0.905137 -6.054073 0.957553 0.000000 0.000000 0.000000 19.413804 -65.159527 19.031444 -46.102435 14.010969 -29.831804 60.620183 19.583517 -6.640945 -24.620295 -7.582850 31.430635 0.966189 4.513483 0.068266 0.000000 0.000000 0.000000 19.413804 -65.159527 19.031444 11.069353 1.329317 -1.981728 7.435955 3.869154 -6.450020 0.000000 0.000000 0.000000 0.000000 0.000000 0.000000 -4.062808 5.582862 -4.856653 2.547262 19.839044 -7.476685 -5.916601 27.205625 -6.697206 0.000000 0.000000 0.000000 -4.062808 5.582862 -4.856653 -1.438140 -8.529051 -7.720708 0.000000 0.000000 0.000000 -13.733669 2.442166 -41.562722 -8.004723 -19.812471 -7.919404 0.000000 0.000000 0.000000 -4.062808 5.582862 -4.856653 -2.804894 17.511217 1.219144 0.000000 0.000000 0.000000 -11.026036 -22.723809 39.514635 -29.815466 53.229426 37.711517 0.000000 0.000000 0.000000 
0.454131 27.091022 -1.002682 0.000000 0.000000 0.000000 28.473710 -72.108773 27.977478 -51.744089 25.438958 62.885914 46.814786 -22.522134 1.272615 -3.683355 16.196844 -31.190650 -0.492406 -5.626925 0.808176 0.000000 0.000000 0.000000 28.473710 -72.108773 27.977478 -53.491818 15.991481 -24.263730 58.422569 21.719406 -6.306885 -19.027485 -5.479001 30.002750 -0.168149 4.685450 -0.193934 0.000000 0.000000 0.000000 28.473710 -72.108773 27.977478 11.177733 0.749436 -1.808080 7.980671 3.068880 -6.811689 0.000000 0.000000 0.000000 0.000000 0.000000 0.000000 -3.385002 5.116894 -5.190052 1.740783 22.662501 -8.128675 -6.669595 28.486496 -7.969442 0.000000 0.000000 0.000000 -3.385002 5.116894 -5.190052 -1.053628 -5.418279 -8.748453 0.000000 0.000000 0.000000 -13.072614 3.747545 -41.542283 -4.682331 -18.553324 -6.367820 0.000000 0.000000 0.000000 -3.385002 5.116894 -5.190052 -2.090533 16.530347 1.454435 0.000000 0.000000 0.000000 -15.833803 -17.327611 33.562610 -29.931221 54.931677 40.860118 0.000000 0.000000 0.000000 
0.551104 27.075893 -1.343094 0.000000 0.000000 0.000000 47.423520 -77.962498 46.776646 -47.290362 31.282150 65.829158 45.030525 -20.314034 0.928978 -5.962276 18.440607 -34.434645 -0.475662 -4.860103 -0.527702 0.000000 0.000000 0.000000 47.423520 -77.962498 46.776646 -59.756724 17.004185 -18.191369 54.711048 23.427293 -5.864790 -12.779898 -3.653055 29.581027 -1.714724 5.010292 -0.620505 0.000000 0.000000 0.000000 47.423520 -77.962498 46.776646 11.411188 0.006172 -1.524500 8.788033 2.075338 -7.061391 0.000000 0.000000 0.000000 0.000000 0.000000 0.000000 -2.438017 4.428678 -5.443277 0.935867 24.189091 -7.228726 -7.024769 29.096227 -9.805362 0.000000 0.000000 0.000000 -2.438017 4.428678 -5.443277 -0.664720 -3.960600 -9.093184 0.000000 0.000000 0.000000 -11.172479 6.111047 -42.323896 -2.228983 -19.043331 -5.596481 0.000000 0.000000 0.000000 -2.438017 4.428678 -5.443277 -1.351330 14.706883 1.623290 0.000000 0.000000 0.000000 -19.518582 -11.939604 28.375760 -29.884321 56.846271 42.575912 0.000000 0.000000 0.000000 
0.530340 26.974770 -1.726175 0.000000 0.000000 0.000000 92.469655 -80.334677 91.531304 -42.742634 38.746403 68.038813 42.792119 -17.100757 0.647518 -7.933389 20.527632 -37.855002 -0.443555 -3.821329 -2.312476 0.000000 0.000000 0.000000 92.469655 -80.334677 91.531304 -66.123546 15.727511 -11.683705 48.867302 25.799078 -5.092000 -5.075566 -0.574876 29.270489 -3.313952 5.243891 -0.952467 0.000000 0.000000 0.000000 92.469655 -80.334677 91.531304 11.809243 -1.171895 -1.158844 9.948387 0.864024 -7.215605 0.000000 0.000000 0.000000 0.000000 0.000000 0.000000 -1.162534 3.030797 -5.710056 0.931596 24.779206 -6.000039 -7.912505 29.161161 -11.559155 0.000000 0.000000 0.000000 -1.162534 3.030797 -5.710056 -0.297170 -3.581440 -9.086701 0.000000 0.000000 0.000000 -8.570811 9.055502 -43.457140 0.324590 -22.830348 -5.488352 0.000000 0.000000 0.000000 -1.162534 3.030797 -5.710056 -0.758184 12.863323 2.327876 0.000000 0.000000 0.000000 -23.416650 -6.128441 22.670853 -31.383442 59.006093 46.117465 0.000000 0.000000 0.000000 
